<svg xmlns="http://www.w3.org/2000/svg" xmlns:xlink="http://www.w3.org/1999/xlink" zoomAndPan="magnify" preserveAspectRatio="xMidYMid meet" version="1.0" viewBox="-91.45 219.67 2106.94 442.45"><defs><clipPath id="094651c968"><path d="M 0 234.328125 L 285.800781 234.328125 L 285.800781 463.078125 L 0 463.078125 Z M 0 234.328125 " clip-rule="nonzero"/></clipPath><clipPath id="ffb94297dd"><path d="M 239 257.347656 L 609.871094 257.347656 L 609.871094 439.597656 L 239 439.597656 Z M 239 257.347656 " clip-rule="nonzero"/></clipPath><clipPath id="d60c1fb3eb"><path d="M 491.640625 271.597656 L 768.261719 271.597656 L 768.261719 439.597656 L 491.640625 439.597656 Z M 491.640625 271.597656 " clip-rule="nonzero"/></clipPath><clipPath id="7671043f6f"><path d="M 598.363281 219.671875 L 1026.613281 219.671875 L 1026.613281 479.171875 L 598.363281 479.171875 Z M 598.363281 219.671875 " clip-rule="nonzero"/></clipPath><clipPath id="825ec532fb"><path d="M 0 283.019531 L 314.125 283.019531 L 314.125 511.769531 L 0 511.769531 Z M 0 283.019531 " clip-rule="nonzero"/></clipPath><clipPath id="f0b652d3ac"><path d="M 1420.238281 219.671875 L 1797.136719 219.671875 L 1797.136719 448.421875 L 1420.238281 448.421875 Z M 1420.238281 219.671875 " clip-rule="nonzero"/></clipPath><clipPath id="d2e571b05d"><path d="M 1208 257.347656 L 1578.882812 257.347656 L 1578.882812 439.597656 L 1208 439.597656 Z M 1208 257.347656 " clip-rule="nonzero"/></clipPath><clipPath id="af06d5ee17"><path d="M 1460.652344 271.597656 L 1737.273438 271.597656 L 1737.273438 439.597656 L 1460.652344 439.597656 Z M 1460.652344 271.597656 " clip-rule="nonzero"/></clipPath><clipPath id="2ae98ec5ba"><path d="M 1567.375 219.671875 L 1944 219.671875 L 1944 479.171875 L 1567.375 479.171875 Z M 1567.375 219.671875 " clip-rule="nonzero"/></clipPath><clipPath id="0c4d5e17dd"><path d="M 900.101562 234.328125 L 1277.351562 234.328125 L 1277.351562 463.078125 L 900.101562 463.078125 Z M 900.101562 234.328125 " clip-rule="nonzero"/></clipPath><clipPath id="9bed258334"><path d="M 0 397.269531 L 1944 397.269531 L 1944 648 L 0 648 Z M 0 397.269531 " clip-rule="nonzero"/></clipPath></defs><g clip-path="url(#094651c968)"><path fill="#f687b3" d="M 243.433594 331.613281 C 245.371094 326.492188 246.457031 320.949219 246.457031 315.136719 C 246.457031 289.53125 225.710938 268.753906 200.082031 268.753906 C 194.859375 268.753906 189.871094 269.628906 185.175781 271.222656 C 173.6875 249.304688 150.6875 234.339844 124.210938 234.339844 C 92.027344 234.339844 65.023438 256.414062 57.488281 286.242188 C 49.765625 279.527344 39.710938 275.441406 28.675781 275.441406 C 4.429688 275.441406 -15.230469 295.101562 -15.230469 319.355469 C -15.230469 319.726562 -15.230469 320.074219 -15.203125 320.445312 C -22.445312 316.621094 -30.695312 314.421875 -39.476562 314.421875 C -68.183594 314.445312 -91.449219 337.71875 -91.449219 366.429688 C -91.449219 395.140625 -68.183594 418.4375 -39.453125 418.4375 C -34.492188 418.4375 -29.6875 417.71875 -25.152344 416.421875 C -19.128906 440.566406 2.675781 458.476562 28.703125 458.476562 C 45.734375 458.476562 60.9375 450.808594 71.125 438.734375 C 78.234375 453.144531 93.0625 463.042969 110.203125 463.042969 C 127.339844 463.042969 141.292969 453.703125 148.644531 439.984375 C 148.882812 439.902344 149.121094 439.851562 149.359375 439.769531 C 156.175781 446.75 165.703125 451.101562 176.234375 451.101562 C 194.804688 451.101562 210.21875 437.621094 213.269531 419.921875 C 220.484375 424.328125 228.972656 426.847656 238.074219 426.847656 C 264.445312 426.847656 285.855469 405.460938 285.855469 379.058594 C 285.855469 354.515625 267.335938 334.269531 243.484375 331.589844 Z M 243.433594 331.613281 " fill-opacity="1" fill-rule="nonzero"/></g><g clip-path="url(#ffb94297dd)"><path fill="#f687b3" d="M 574.382812 341.128906 C 569.785156 341.128906 565.410156 342.019531 561.398438 343.636719 C 558.097656 331.15625 546.730469 321.953125 533.199219 321.953125 C 531.3125 321.953125 529.46875 322.136719 527.6875 322.480469 C 524.40625 301.664062 506.375 285.746094 484.597656 285.746094 C 475.824219 285.746094 467.683594 288.335938 460.835938 292.785156 C 450.339844 271.789062 428.625 257.347656 403.523438 257.347656 C 376.195312 257.347656 352.875 274.460938 343.699219 298.53125 C 342.644531 298.46875 341.59375 298.449219 340.519531 298.449219 C 317.222656 298.449219 297.0625 311.71875 287.136719 331.097656 C 283.1875 329.558594 278.910156 328.710938 274.414062 328.710938 C 255.007812 328.710938 239.285156 344.40625 239.285156 363.785156 C 239.285156 383.160156 255.007812 398.859375 274.414062 398.859375 C 280.976562 398.859375 287.136719 397.058594 292.382812 393.921875 C 301.703125 406.445312 315.804688 415.183594 331.96875 417.488281 C 337.417969 429.582031 349.59375 438.019531 363.753906 438.019531 C 374.066406 438.019531 383.324219 433.546875 389.707031 426.429688 C 395.539062 433.144531 404.128906 437.410156 413.734375 437.410156 C 421.878906 437.410156 429.292969 434.359375 434.902344 429.339844 C 443.007812 435.710938 453.21875 439.515625 464.339844 439.515625 C 478.84375 439.515625 491.808594 433.042969 500.542969 422.847656 C 504.855469 424.222656 509.453125 424.972656 514.214844 424.972656 C 530.503906 424.972656 544.746094 416.292969 552.585938 403.308594 C 558.5625 408.0625 566.117188 410.933594 574.363281 410.933594 C 593.671875 410.933594 609.308594 395.320312 609.308594 376.042969 C 609.308594 356.765625 593.671875 341.148438 574.363281 341.148438 Z M 574.382812 341.128906 " fill-opacity="1" fill-rule="nonzero"/></g><g clip-path="url(#d60c1fb3eb)"><path fill="#f687b3" d="M 530.746094 325.015625 C 535.96875 325.015625 540.925781 326.039062 545.496094 327.882812 C 549.816406 310.976562 565.179688 298.46875 583.453125 298.46875 C 591.296875 298.46875 598.613281 300.78125 604.738281 304.75 C 611.742188 285.46875 630.261719 271.671875 651.996094 271.671875 C 678.789062 271.671875 700.6875 292.613281 702.183594 319.019531 C 707.179688 317.339844 712.527344 316.441406 718.097656 316.441406 C 745.875 316.441406 768.390625 338.9375 768.390625 366.671875 C 768.390625 394.410156 745.875 416.90625 718.121094 416.90625 C 710.664062 416.90625 703.597656 415.269531 697.246094 412.363281 C 686.941406 428.65625 668.773438 439.507812 648.0625 439.507812 C 629.6875 439.507812 613.300781 430.96875 602.648438 417.664062 C 596.851562 423.417969 588.882812 426.957031 580.074219 426.957031 C 563.789062 426.957031 550.371094 414.839844 548.300781 399.140625 C 543.015625 401.78125 537.054688 403.292969 530.746094 403.292969 C 509.113281 403.292969 491.578125 385.773438 491.578125 364.15625 C 491.578125 342.539062 509.113281 325.015625 530.746094 325.015625 Z M 530.746094 325.015625 " fill-opacity="1" fill-rule="nonzero"/></g><g clip-path="url(#7671043f6f)"><path fill="#f687b3" d="M 978.519531 330.035156 C 980.714844 324.226562 981.949219 317.933594 981.949219 311.339844 C 981.949219 282.292969 958.402344 258.722656 929.308594 258.722656 C 923.375 258.722656 917.714844 259.714844 912.382812 261.523438 C 899.34375 236.65625 873.230469 219.679688 843.175781 219.679688 C 806.644531 219.679688 775.988281 244.726562 767.433594 278.558594 C 758.671875 270.945312 747.257812 266.308594 734.730469 266.308594 C 707.203125 266.308594 684.886719 288.613281 684.886719 316.128906 C 684.886719 316.550781 684.886719 316.941406 684.917969 317.363281 C 676.695312 313.027344 667.328125 310.527344 657.359375 310.527344 C 624.773438 310.558594 598.363281 336.957031 598.363281 369.53125 C 598.363281 402.101562 624.773438 428.53125 657.390625 428.53125 C 663.023438 428.53125 668.472656 427.71875 673.625 426.242188 C 680.460938 453.636719 705.214844 473.953125 734.757812 473.953125 C 754.09375 473.953125 771.351562 465.253906 782.914062 451.558594 C 790.984375 467.902344 807.820312 479.132812 827.273438 479.132812 C 846.730469 479.132812 862.570312 468.535156 870.914062 452.972656 C 871.183594 452.882812 871.457031 452.824219 871.726562 452.730469 C 879.464844 460.648438 890.277344 465.585938 902.234375 465.585938 C 923.316406 465.585938 940.8125 450.292969 944.277344 430.214844 C 952.46875 435.210938 962.105469 438.074219 972.433594 438.074219 C 1002.371094 438.074219 1026.671875 413.808594 1026.671875 383.859375 C 1026.671875 356.011719 1005.652344 333.046875 978.578125 330.003906 Z M 978.519531 330.035156 " fill-opacity="1" fill-rule="nonzero"/></g><g clip-path="url(#825ec532fb)"><path fill="#f687b3" d="M 271.757812 380.304688 C 273.695312 375.183594 274.78125 369.640625 274.78125 363.828125 C 274.78125 338.222656 254.035156 317.445312 228.410156 317.445312 C 223.183594 317.445312 218.195312 318.320312 213.5 319.914062 C 202.011719 297.996094 179.011719 283.03125 152.535156 283.03125 C 120.351562 283.03125 93.347656 305.105469 85.8125 334.929688 C 78.09375 328.21875 68.039062 324.132812 57 324.132812 C 32.753906 324.132812 13.09375 343.792969 13.09375 368.046875 C 13.09375 368.417969 13.09375 368.761719 13.121094 369.132812 C 5.878906 365.3125 -2.371094 363.113281 -11.152344 363.113281 C -39.859375 363.136719 -63.125 386.410156 -63.125 415.121094 C -63.125 443.828125 -39.859375 467.128906 -11.125 467.128906 C -6.164062 467.128906 -1.363281 466.410156 3.171875 465.109375 C 9.195312 489.257812 31.003906 507.167969 57.027344 507.167969 C 74.058594 507.167969 89.261719 499.5 99.449219 487.425781 C 106.558594 501.835938 121.386719 511.730469 138.527344 511.730469 C 155.664062 511.730469 169.617188 502.390625 176.96875 488.671875 C 177.207031 488.59375 177.445312 488.539062 177.683594 488.460938 C 184.5 495.441406 194.027344 499.792969 204.558594 499.792969 C 223.128906 499.792969 238.542969 486.3125 241.59375 468.613281 C 248.808594 473.019531 257.300781 475.539062 266.398438 475.539062 C 292.769531 475.539062 314.179688 454.152344 314.179688 427.75 C 314.179688 403.207031 295.660156 382.960938 271.808594 380.277344 Z M 271.757812 380.304688 " fill-opacity="1" fill-rule="nonzero"/></g><g clip-path="url(#f0b652d3ac)"><path fill="#f687b3" d="M 1462.253906 316.957031 C 1460.316406 311.835938 1459.230469 306.289062 1459.230469 300.480469 C 1459.230469 274.875 1479.976562 254.097656 1505.601562 254.097656 C 1510.828125 254.097656 1515.816406 254.972656 1520.511719 256.566406 C 1532 234.648438 1555 219.679688 1581.476562 219.679688 C 1613.65625 219.679688 1640.664062 241.757812 1648.199219 271.582031 C 1655.917969 264.871094 1665.972656 260.785156 1677.011719 260.785156 C 1701.257812 260.785156 1720.917969 280.445312 1720.917969 304.699219 C 1720.917969 305.070312 1720.917969 305.414062 1720.890625 305.785156 C 1728.132812 301.964844 1736.382812 299.761719 1745.164062 299.761719 C 1773.871094 299.789062 1797.136719 323.0625 1797.136719 351.769531 C 1797.136719 380.480469 1773.871094 403.78125 1745.136719 403.78125 C 1740.175781 403.78125 1735.375 403.0625 1730.839844 401.761719 C 1724.816406 425.910156 1703.007812 443.820312 1676.984375 443.820312 C 1659.953125 443.820312 1644.75 436.152344 1634.5625 424.078125 C 1627.453125 438.488281 1612.621094 448.382812 1595.484375 448.382812 C 1578.347656 448.382812 1564.390625 439.042969 1557.042969 425.324219 C 1556.804688 425.246094 1556.566406 425.191406 1556.328125 425.113281 C 1549.507812 432.09375 1539.984375 436.445312 1529.453125 436.445312 C 1510.882812 436.445312 1495.46875 422.964844 1492.417969 405.265625 C 1485.203125 409.671875 1476.710938 412.191406 1467.613281 412.191406 C 1441.242188 412.191406 1419.832031 390.804688 1419.832031 364.402344 C 1419.832031 339.855469 1438.351562 319.609375 1462.199219 316.929688 Z M 1462.253906 316.957031 " fill-opacity="1" fill-rule="nonzero"/></g><g clip-path="url(#d2e571b05d)"><path fill="#f687b3" d="M 1543.394531 341.128906 C 1538.796875 341.128906 1534.421875 342.019531 1530.410156 343.636719 C 1527.105469 331.15625 1515.742188 321.953125 1502.207031 321.953125 C 1500.324219 321.953125 1498.480469 322.136719 1496.699219 322.480469 C 1493.417969 301.664062 1475.386719 285.746094 1453.609375 285.746094 C 1444.835938 285.746094 1436.691406 288.335938 1429.84375 292.785156 C 1419.351562 271.789062 1397.632812 257.347656 1372.535156 257.347656 C 1345.203125 257.347656 1321.886719 274.460938 1312.710938 298.53125 C 1311.65625 298.46875 1310.601562 298.449219 1309.527344 298.449219 C 1286.230469 298.449219 1266.074219 311.71875 1256.148438 331.097656 C 1252.195312 329.558594 1247.921875 328.710938 1243.425781 328.710938 C 1224.015625 328.710938 1208.296875 344.40625 1208.296875 363.785156 C 1208.296875 383.160156 1224.015625 398.859375 1243.425781 398.859375 C 1249.988281 398.859375 1256.148438 397.058594 1261.394531 393.921875 C 1270.714844 406.445312 1284.8125 415.183594 1300.980469 417.488281 C 1306.429688 429.582031 1318.605469 438.019531 1332.765625 438.019531 C 1343.078125 438.019531 1352.335938 433.546875 1358.71875 426.429688 C 1364.550781 433.144531 1373.140625 437.410156 1382.742188 437.410156 C 1390.886719 437.410156 1398.300781 434.359375 1403.914062 429.339844 C 1412.015625 435.710938 1422.226562 439.515625 1433.351562 439.515625 C 1447.855469 439.515625 1460.820312 433.042969 1469.550781 422.847656 C 1473.867188 424.222656 1478.464844 424.972656 1483.226562 424.972656 C 1499.515625 424.972656 1513.757812 416.292969 1521.597656 403.308594 C 1527.574219 408.0625 1535.128906 410.933594 1543.375 410.933594 C 1562.679688 410.933594 1578.320312 395.320312 1578.320312 376.042969 C 1578.320312 356.765625 1562.679688 341.148438 1543.375 341.148438 Z M 1543.394531 341.128906 " fill-opacity="1" fill-rule="nonzero"/></g><g clip-path="url(#af06d5ee17)"><path fill="#f687b3" d="M 1499.757812 325.015625 C 1504.980469 325.015625 1509.9375 326.039062 1514.503906 327.882812 C 1518.828125 310.976562 1534.191406 298.46875 1552.464844 298.46875 C 1560.308594 298.46875 1567.621094 300.78125 1573.746094 304.75 C 1580.753906 285.46875 1599.269531 271.671875 1621.003906 271.671875 C 1647.800781 271.671875 1669.699219 292.613281 1671.195312 319.019531 C 1676.191406 317.339844 1681.539062 316.441406 1687.109375 316.441406 C 1714.886719 316.441406 1737.402344 338.9375 1737.402344 366.671875 C 1737.402344 394.410156 1714.886719 416.90625 1687.128906 416.90625 C 1679.675781 416.90625 1672.605469 415.269531 1666.257812 412.363281 C 1655.953125 428.65625 1637.78125 439.507812 1617.074219 439.507812 C 1598.699219 439.507812 1582.308594 430.96875 1571.65625 417.664062 C 1565.859375 423.417969 1557.890625 426.957031 1549.082031 426.957031 C 1532.796875 426.957031 1519.378906 414.839844 1517.3125 399.140625 C 1512.027344 401.78125 1506.066406 403.292969 1499.757812 403.292969 C 1478.125 403.292969 1460.589844 385.773438 1460.589844 364.15625 C 1460.589844 342.539062 1478.125 325.015625 1499.757812 325.015625 Z M 1499.757812 325.015625 " fill-opacity="1" fill-rule="nonzero"/></g><g clip-path="url(#2ae98ec5ba)"><path fill="#f687b3" d="M 1947.527344 330.035156 C 1949.726562 324.226562 1950.960938 317.933594 1950.960938 311.339844 C 1950.960938 282.292969 1927.410156 258.722656 1898.320312 258.722656 C 1892.386719 258.722656 1886.722656 259.714844 1881.394531 261.523438 C 1868.355469 236.65625 1842.242188 219.679688 1812.1875 219.679688 C 1775.65625 219.679688 1745 244.726562 1736.445312 278.558594 C 1727.679688 270.945312 1716.269531 266.308594 1703.738281 266.308594 C 1676.214844 266.308594 1653.898438 288.613281 1653.898438 316.128906 C 1653.898438 316.550781 1653.898438 316.941406 1653.925781 317.363281 C 1645.707031 313.027344 1636.339844 310.527344 1626.371094 310.527344 C 1593.785156 310.558594 1567.375 336.957031 1567.375 369.53125 C 1567.375 402.101562 1593.785156 428.53125 1626.402344 428.53125 C 1632.03125 428.53125 1637.484375 427.71875 1642.632812 426.242188 C 1649.46875 453.636719 1674.226562 473.953125 1703.769531 473.953125 C 1723.105469 473.953125 1740.359375 465.253906 1751.925781 451.558594 C 1759.996094 467.902344 1776.832031 479.132812 1796.285156 479.132812 C 1815.742188 479.132812 1831.582031 468.535156 1839.925781 452.972656 C 1840.195312 452.882812 1840.464844 452.824219 1840.738281 452.730469 C 1848.476562 460.648438 1859.289062 465.585938 1871.246094 465.585938 C 1892.324219 465.585938 1909.824219 450.292969 1913.285156 430.214844 C 1921.476562 435.210938 1931.117188 438.074219 1941.445312 438.074219 C 1971.378906 438.074219 1995.683594 413.808594 1995.683594 383.859375 C 1995.683594 356.011719 1974.664062 333.046875 1947.589844 330.003906 Z M 1947.527344 330.035156 " fill-opacity="1" fill-rule="nonzero"/></g><g clip-path="url(#0c4d5e17dd)"><path fill="#f687b3" d="M 1234.984375 331.613281 C 1236.917969 326.492188 1238.007812 320.949219 1238.007812 315.136719 C 1238.007812 289.53125 1217.261719 268.753906 1191.632812 268.753906 C 1186.40625 268.753906 1181.417969 269.628906 1176.722656 271.222656 C 1165.238281 249.304688 1142.234375 234.339844 1115.757812 234.339844 C 1083.578125 234.339844 1056.570312 256.414062 1049.039062 286.242188 C 1041.316406 279.527344 1031.261719 275.441406 1020.226562 275.441406 C 995.976562 275.441406 976.320312 295.101562 976.320312 319.355469 C 976.320312 319.726562 976.320312 320.074219 976.347656 320.445312 C 969.105469 316.621094 960.851562 314.421875 952.070312 314.421875 C 923.367188 314.445312 900.101562 337.71875 900.101562 366.429688 C 900.101562 395.140625 923.367188 418.4375 952.097656 418.4375 C 957.058594 418.4375 961.863281 417.71875 966.398438 416.421875 C 972.421875 440.566406 994.226562 458.476562 1020.253906 458.476562 C 1037.285156 458.476562 1052.488281 450.808594 1062.671875 438.734375 C 1069.785156 453.144531 1084.613281 463.042969 1101.75 463.042969 C 1118.890625 463.042969 1132.84375 453.703125 1140.191406 439.984375 C 1140.433594 439.902344 1140.671875 439.851562 1140.910156 439.769531 C 1147.726562 446.75 1157.25 451.101562 1167.785156 451.101562 C 1186.355469 451.101562 1201.769531 437.621094 1204.820312 419.921875 C 1212.035156 424.328125 1220.523438 426.847656 1229.625 426.847656 C 1255.996094 426.847656 1277.402344 405.460938 1277.402344 379.058594 C 1277.402344 354.515625 1258.886719 334.269531 1235.035156 331.589844 Z M 1234.984375 331.613281 " fill-opacity="1" fill-rule="nonzero"/></g><g clip-path="url(#9bed258334)"><path fill="#f687b3" d="M -69.074219 397.269531 L 2015.492188 397.269531 L 2015.492188 662.121094 L -69.074219 662.121094 Z M -69.074219 397.269531 " fill-opacity="1" fill-rule="nonzero"/></g></svg>