<svg xmlns="http://www.w3.org/2000/svg" xmlns:xlink="http://www.w3.org/1999/xlink" width="6912" zoomAndPan="magnify" viewBox="0 0 5184 2592.000001" height="3456" preserveAspectRatio="xMidYMid meet" version="1.0"><defs><clipPath id="73bd2813cd"><path d="M 1 1471.746094 L 999.78125 1471.746094 L 999.78125 2591 L 1 2591 Z M 1 1471.746094 " clip-rule="nonzero"/></clipPath><clipPath id="0722ba52f3"><path d="M 700 1621.152344 L 3102 1621.152344 L 3102 2591 L 700 2591 Z M 700 1621.152344 " clip-rule="nonzero"/></clipPath><clipPath id="86768d735f"><path d="M 2337.511719 1714 L 4134.402344 1714 L 4134.402344 2591 L 2337.511719 2591 Z M 2337.511719 1714 " clip-rule="nonzero"/></clipPath><clipPath id="49a28d7dac"><path d="M 3030.902344 1376.609375 L 5183 1376.609375 L 5183 2591 L 3030.902344 2591 Z M 3030.902344 1376.609375 " clip-rule="nonzero"/></clipPath><clipPath id="e7d7b68ac4"><path d="M 1 1787.789062 L 1183.628906 1787.789062 L 1183.628906 2591 L 1 2591 Z M 1 1787.789062 " clip-rule="nonzero"/></clipPath></defs><g clip-path="url(#73bd2813cd)"><path fill="#f687b3" d="M 725.046875 2102.429688 C 737.605469 2069.230469 744.65625 2033.28125 744.65625 1995.609375 C 744.65625 1829.613281 610.128906 1694.921875 443.945312 1694.921875 C 410.054688 1694.921875 377.710938 1700.597656 347.261719 1710.921875 C 272.773438 1568.835938 123.621094 1471.816406 -48.070312 1471.816406 C -256.746094 1471.816406 -431.875 1614.933594 -480.730469 1808.28125 C -530.792969 1764.761719 -595.992188 1738.269531 -667.558594 1738.269531 C -824.796875 1738.269531 -952.273438 1865.734375 -952.273438 2022.960938 C -952.273438 2025.367188 -952.273438 2027.605469 -952.101562 2030.011719 C -999.066406 2005.242188 -1052.570312 1990.964844 -1109.511719 1990.964844 C -1295.652344 1991.136719 -1446.523438 2141.996094 -1446.523438 2328.117188 C -1446.523438 2514.242188 -1295.652344 2665.269531 -1109.339844 2665.269531 C -1077.167969 2665.269531 -1046.03125 2660.625 -1016.613281 2652.199219 C -977.5625 2808.734375 -836.152344 2924.84375 -667.386719 2924.84375 C -556.941406 2924.84375 -458.367188 2875.132812 -392.304688 2796.863281 C -346.203125 2890.269531 -250.035156 2954.433594 -138.902344 2954.433594 C -27.769531 2954.433594 62.71875 2893.882812 110.375 2804.949219 C 111.921875 2804.433594 113.46875 2804.089844 115.019531 2803.574219 C 159.230469 2848.8125 220.988281 2877.023438 289.289062 2877.023438 C 409.710938 2877.023438 509.660156 2789.640625 529.445312 2674.902344 C 576.238281 2703.457031 631.289062 2719.800781 690.296875 2719.800781 C 861.296875 2719.800781 1000.125 2581.15625 1000.125 2409.996094 C 1000.125 2250.882812 880.046875 2119.632812 725.390625 2102.257812 Z M 725.046875 2102.429688 " fill-opacity="1" fill-rule="nonzero"/></g><g clip-path="url(#0722ba52f3)"><path fill="#f687b3" d="M 2874.460938 2165.699219 C 2844.621094 2165.699219 2816.230469 2171.484375 2790.203125 2182.003906 C 2768.777344 2100.886719 2695.035156 2041.066406 2607.230469 2041.066406 C 2595.003906 2041.066406 2583.042969 2042.25 2571.476562 2044.484375 C 2550.183594 1909.203125 2433.195312 1805.734375 2291.890625 1805.734375 C 2234.972656 1805.734375 2182.132812 1822.5625 2137.703125 1851.488281 C 2069.613281 1715.019531 1928.703125 1621.152344 1765.839844 1621.152344 C 1588.519531 1621.152344 1437.226562 1732.375 1377.679688 1888.824219 C 1370.84375 1888.429688 1364.007812 1888.296875 1357.042969 1888.296875 C 1205.878906 1888.296875 1075.089844 1974.542969 1010.683594 2100.492188 C 985.050781 2090.5 957.316406 2084.976562 928.132812 2084.976562 C 802.207031 2084.976562 700.207031 2186.996094 700.207031 2312.945312 C 700.207031 2438.894531 802.207031 2540.914062 928.132812 2540.914062 C 970.722656 2540.914062 1010.683594 2529.214844 1044.726562 2508.835938 C 1105.191406 2590.214844 1196.679688 2647.011719 1301.574219 2662 C 1336.933594 2740.617188 1415.929688 2795.441406 1507.8125 2795.441406 C 1574.71875 2795.441406 1634.789062 2766.386719 1676.195312 2720.109375 C 1714.050781 2763.757812 1769.785156 2791.496094 1832.089844 2791.496094 C 1884.933594 2791.496094 1933.042969 2771.644531 1969.453125 2739.039062 C 2022.03125 2780.453125 2088.28125 2805.167969 2160.445312 2805.167969 C 2254.558594 2805.167969 2338.683594 2763.097656 2395.339844 2696.835938 C 2423.335938 2705.777344 2453.175781 2710.640625 2484.0625 2710.640625 C 2589.746094 2710.640625 2682.152344 2654.242188 2733.023438 2569.839844 C 2771.800781 2600.734375 2820.828125 2619.402344 2874.328125 2619.402344 C 2999.597656 2619.402344 3101.074219 2517.90625 3101.074219 2392.617188 C 3101.074219 2267.324219 2999.597656 2165.832031 2874.328125 2165.832031 Z M 2874.460938 2165.699219 " fill-opacity="1" fill-rule="nonzero"/></g><g clip-path="url(#86768d735f)"><path fill="#f687b3" d="M 2591.441406 2060.75 C 2625.359375 2060.75 2657.550781 2067.402344 2687.210938 2079.371094 C 2715.277344 1969.511719 2815.042969 1888.25 2933.691406 1888.25 C 2984.636719 1888.25 3032.125 1903.277344 3071.898438 1929.082031 C 3117.390625 1803.792969 3237.636719 1714.152344 3378.765625 1714.152344 C 3552.753906 1714.152344 3694.949219 1850.210938 3704.65625 2021.78125 C 3737.113281 2010.875 3771.832031 2005.023438 3808.011719 2005.023438 C 3988.382812 2005.023438 4134.566406 2151.191406 4134.566406 2331.40625 C 4134.566406 2511.621094 3988.382812 2657.789062 3808.144531 2657.789062 C 3759.726562 2657.789062 3713.835938 2647.148438 3672.601562 2628.265625 C 3605.695312 2734.132812 3487.707031 2804.621094 3353.226562 2804.621094 C 3233.910156 2804.621094 3127.5 2749.160156 3058.328125 2662.710938 C 3020.6875 2700.085938 2968.941406 2723.09375 2911.746094 2723.09375 C 2805.996094 2723.09375 2718.871094 2644.355469 2705.4375 2542.34375 C 2671.117188 2559.503906 2632.410156 2569.34375 2591.441406 2569.34375 C 2450.976562 2569.34375 2337.113281 2455.496094 2337.113281 2315.046875 C 2337.113281 2174.601562 2450.976562 2060.75 2591.441406 2060.75 Z M 2591.441406 2060.75 " fill-opacity="1" fill-rule="nonzero"/></g><g clip-path="url(#49a28d7dac)"><path fill="#f687b3" d="M 5499.957031 2093.703125 C 5514.238281 2055.957031 5522.257812 2015.078125 5522.257812 1972.246094 C 5522.257812 1783.507812 5369.296875 1630.367188 5180.347656 1630.367188 C 5141.816406 1630.367188 5105.042969 1636.820312 5070.421875 1648.554688 C 4985.726562 1487.003906 4816.140625 1376.695312 4620.933594 1376.695312 C 4383.671875 1376.695312 4184.550781 1539.421875 4129 1759.257812 C 4072.082031 1709.773438 3997.949219 1679.652344 3916.578125 1679.652344 C 3737.800781 1679.652344 3592.863281 1824.582031 3592.863281 2003.34375 C 3592.863281 2006.082031 3592.863281 2008.625 3593.058594 2011.363281 C 3539.660156 1983.199219 3478.828125 1966.964844 3414.082031 1966.964844 C 3202.445312 1967.160156 3030.902344 2138.6875 3030.902344 2350.308594 C 3030.902344 2561.929688 3202.445312 2733.652344 3414.277344 2733.652344 C 3450.855469 2733.652344 3486.261719 2728.371094 3519.707031 2718.785156 C 3564.109375 2896.765625 3724.890625 3028.785156 3916.773438 3028.785156 C 4042.351562 3028.785156 4154.429688 2972.261719 4229.539062 2883.273438 C 4281.960938 2989.472656 4391.300781 3062.425781 4517.65625 3062.425781 C 4644.015625 3062.425781 4746.898438 2993.582031 4801.082031 2892.464844 C 4802.839844 2891.878906 4804.601562 2891.488281 4806.363281 2890.898438 C 4856.628906 2942.339844 4926.851562 2974.414062 5004.503906 2974.414062 C 5141.421875 2974.414062 5255.066406 2875.058594 5277.5625 2744.605469 C 5330.765625 2777.070312 5393.355469 2795.652344 5460.445312 2795.652344 C 5654.871094 2795.652344 5812.722656 2638.011719 5812.722656 2443.40625 C 5812.722656 2262.492188 5676.191406 2113.261719 5500.347656 2093.507812 Z M 5499.957031 2093.703125 " fill-opacity="1" fill-rule="nonzero"/></g><g clip-path="url(#e7d7b68ac4)"><path fill="#f687b3" d="M 908.894531 2418.472656 C 921.453125 2385.273438 928.503906 2349.320312 928.503906 2311.648438 C 928.503906 2145.652344 793.976562 2010.964844 627.792969 2010.964844 C 593.902344 2010.964844 561.558594 2016.640625 531.109375 2026.960938 C 456.621094 1884.875 307.46875 1787.859375 135.777344 1787.859375 C -72.898438 1787.859375 -248.027344 1930.976562 -296.882812 2124.324219 C -346.945312 2080.804688 -412.144531 2054.3125 -483.710938 2054.3125 C -640.949219 2054.3125 -768.425781 2181.777344 -768.425781 2339 C -768.425781 2341.410156 -768.425781 2343.644531 -768.253906 2346.054688 C -815.21875 2321.28125 -868.722656 2307.003906 -925.664062 2307.003906 C -1111.804688 2307.179688 -1262.675781 2458.035156 -1262.675781 2644.160156 C -1262.675781 2830.28125 -1111.804688 2981.3125 -925.492188 2981.3125 C -893.320312 2981.3125 -862.183594 2976.667969 -832.765625 2968.238281 C -793.714844 3124.773438 -652.304688 3240.886719 -483.539062 3240.886719 C -373.09375 3240.886719 -274.519531 3191.171875 -208.460938 3112.90625 C -162.355469 3206.3125 -66.1875 3270.472656 44.945312 3270.472656 C 156.078125 3270.472656 246.566406 3209.921875 294.21875 3120.992188 C 295.769531 3120.472656 297.316406 3120.128906 298.867188 3119.613281 C 343.078125 3164.855469 404.835938 3193.066406 473.132812 3193.066406 C 593.558594 3193.066406 693.507812 3105.679688 713.292969 2990.945312 C 760.085938 3019.5 815.136719 3035.84375 874.144531 3035.84375 C 1045.144531 3035.84375 1183.972656 2897.195312 1183.972656 2726.039062 C 1183.972656 2566.921875 1063.894531 2435.675781 909.238281 2418.300781 Z M 908.894531 2418.472656 " fill-opacity="1" fill-rule="nonzero"/></g></svg>