<svg xmlns="http://www.w3.org/2000/svg" xmlns:xlink="http://www.w3.org/1999/xlink" width="6912" zoomAndPan="magnify" viewBox="0 0 5184 2592.000001" height="3456" preserveAspectRatio="xMidYMid meet" version="1.0"><defs><clipPath id="ccf20df4a4"><path d="M 1 2075.820312 L 549.910156 2075.820312 L 549.910156 2591 L 1 2591 Z M 1 2075.820312 " clip-rule="nonzero"/></clipPath><clipPath id="3110a52acb"><path d="M 411 2144.875 L 1522 2144.875 L 1522 2591 L 411 2591 Z M 411 2144.875 " clip-rule="nonzero"/></clipPath><clipPath id="e09df27b51"><path d="M 1168.230469 2187.632812 L 1998.886719 2187.632812 L 1998.886719 2591 L 1168.230469 2591 Z M 1168.230469 2187.632812 " clip-rule="nonzero"/></clipPath><clipPath id="677e0ea04a"><path d="M 1488.789062 2031.847656 L 2774.542969 2031.847656 L 2774.542969 2591 L 1488.789062 2591 Z M 1488.789062 2031.847656 " clip-rule="nonzero"/></clipPath><clipPath id="34e77f625e"><path d="M 1 2221.894531 L 634.882812 2221.894531 L 634.882812 2591 L 1 2591 Z M 1 2221.894531 " clip-rule="nonzero"/></clipPath><clipPath id="492be9e6f0"><path d="M 3954.574219 2031.847656 L 5084.984375 2031.847656 L 5084.984375 2591 L 3954.574219 2591 Z M 3954.574219 2031.847656 " clip-rule="nonzero"/></clipPath><clipPath id="e6f4497205"><path d="M 3318 2144.875 L 4429 2144.875 L 4429 2591 L 3318 2591 Z M 3318 2144.875 " clip-rule="nonzero"/></clipPath><clipPath id="1ffac0d017"><path d="M 4075.273438 2187.632812 L 4905.929688 2187.632812 L 4905.929688 2591 L 4075.273438 2591 Z M 4075.273438 2187.632812 " clip-rule="nonzero"/></clipPath><clipPath id="8cdfd8c9b4"><path d="M 4395.832031 2031.847656 L 5183 2031.847656 L 5183 2591 L 4395.832031 2591 Z M 4395.832031 2031.847656 " clip-rule="nonzero"/></clipPath><clipPath id="683bbcf1fa"><path d="M 2394.003906 2075.820312 L 3524.570312 2075.820312 L 3524.570312 2591 L 2394.003906 2591 Z M 2394.003906 2075.820312 " clip-rule="nonzero"/></clipPath></defs><g clip-path="url(#ccf20df4a4)"><path fill="#f687b3" d="M 422.941406 2367.25 C 428.746094 2351.910156 432.003906 2335.296875 432.003906 2317.886719 C 432.003906 2241.183594 369.832031 2178.945312 293.027344 2178.945312 C 277.367188 2178.945312 262.417969 2181.570312 248.347656 2186.339844 C 213.921875 2120.683594 144.992188 2075.855469 65.644531 2075.855469 C -30.796875 2075.855469 -111.730469 2141.984375 -134.3125 2231.328125 C -157.449219 2211.21875 -187.578125 2198.976562 -220.652344 2198.976562 C -293.320312 2198.976562 -352.234375 2257.875 -352.234375 2330.527344 C -352.234375 2331.640625 -352.234375 2332.671875 -352.15625 2333.785156 C -373.859375 2322.339844 -398.585938 2315.742188 -424.902344 2315.742188 C -510.925781 2315.820312 -580.652344 2385.53125 -580.652344 2471.535156 C -580.652344 2557.539062 -510.925781 2627.328125 -424.824219 2627.328125 C -409.957031 2627.328125 -395.566406 2625.179688 -381.96875 2621.285156 C -363.921875 2693.617188 -298.570312 2747.273438 -220.574219 2747.273438 C -169.53125 2747.273438 -123.976562 2724.300781 -93.445312 2688.132812 C -72.136719 2731.296875 -27.695312 2760.945312 23.664062 2760.945312 C 75.027344 2760.945312 116.84375 2732.964844 138.867188 2691.871094 C 139.582031 2691.632812 140.300781 2691.472656 141.015625 2691.234375 C 161.449219 2712.140625 189.992188 2725.175781 221.554688 2725.175781 C 277.207031 2725.175781 323.398438 2684.796875 332.542969 2631.777344 C 354.167969 2644.972656 379.609375 2652.523438 406.878906 2652.523438 C 485.910156 2652.523438 550.070312 2588.457031 550.070312 2509.371094 C 550.070312 2435.84375 494.574219 2375.199219 423.097656 2367.167969 Z M 422.941406 2367.25 " fill-opacity="1" fill-rule="nonzero"/></g><g clip-path="url(#3110a52acb)"><path fill="#f687b3" d="M 1416.457031 2396.46875 C 1402.667969 2396.46875 1389.546875 2399.144531 1377.515625 2404.003906 C 1367.613281 2366.523438 1333.53125 2338.886719 1292.949219 2338.886719 C 1287.300781 2338.886719 1281.769531 2339.433594 1276.425781 2340.464844 C 1266.582031 2277.960938 1212.511719 2230.15625 1147.203125 2230.15625 C 1120.898438 2230.15625 1096.476562 2237.933594 1075.941406 2251.296875 C 1044.472656 2188.246094 979.347656 2144.875 904.074219 2144.875 C 822.121094 2144.875 752.195312 2196.261719 724.671875 2268.546875 C 721.515625 2268.363281 718.355469 2268.304688 715.136719 2268.304688 C 645.269531 2268.304688 584.820312 2308.152344 555.054688 2366.34375 C 543.207031 2361.726562 530.386719 2359.175781 516.902344 2359.175781 C 458.699219 2359.175781 411.558594 2406.308594 411.558594 2464.5 C 411.558594 2522.691406 458.699219 2569.828125 516.902344 2569.828125 C 536.585938 2569.828125 555.054688 2564.421875 570.789062 2555.007812 C 598.734375 2592.605469 641.019531 2618.847656 689.5 2625.773438 C 705.839844 2662.097656 742.351562 2687.425781 784.816406 2687.425781 C 815.742188 2687.425781 843.503906 2674.003906 862.640625 2652.621094 C 880.136719 2672.789062 905.898438 2685.605469 934.695312 2685.605469 C 959.117188 2685.605469 981.351562 2676.433594 998.179688 2661.367188 C 1022.480469 2680.5 1053.101562 2691.921875 1086.453125 2691.921875 C 1129.953125 2691.921875 1168.832031 2672.484375 1195.015625 2641.871094 C 1207.957031 2646 1221.746094 2648.246094 1236.023438 2648.246094 C 1284.867188 2648.246094 1327.578125 2622.1875 1351.089844 2583.191406 C 1369.011719 2597.464844 1391.671875 2606.09375 1416.398438 2606.09375 C 1474.292969 2606.09375 1521.195312 2559.199219 1521.195312 2501.3125 C 1521.195312 2443.425781 1474.292969 2396.53125 1416.398438 2396.53125 Z M 1416.457031 2396.46875 " fill-opacity="1" fill-rule="nonzero"/></g><g clip-path="url(#e09df27b51)"><path fill="#f687b3" d="M 1285.585938 2348.066406 C 1301.265625 2348.066406 1316.144531 2351.140625 1329.855469 2356.671875 C 1342.828125 2305.894531 1388.945312 2268.332031 1443.789062 2268.332031 C 1467.339844 2268.332031 1489.289062 2275.277344 1507.675781 2287.207031 C 1528.703125 2229.292969 1584.285156 2187.859375 1649.523438 2187.859375 C 1729.949219 2187.859375 1795.675781 2250.75 1800.164062 2330.054688 C 1815.167969 2325.011719 1831.214844 2322.308594 1847.941406 2322.308594 C 1931.316406 2322.308594 1998.886719 2389.871094 1998.886719 2473.171875 C 1998.886719 2556.46875 1931.316406 2624.03125 1848 2624.03125 C 1825.621094 2624.03125 1804.40625 2619.113281 1785.347656 2610.382812 C 1754.417969 2659.320312 1699.878906 2691.902344 1637.71875 2691.902344 C 1582.566406 2691.902344 1533.375 2666.265625 1501.402344 2626.304688 C 1484.003906 2643.582031 1460.085938 2654.214844 1433.644531 2654.214844 C 1384.761719 2654.214844 1344.488281 2617.824219 1338.28125 2570.671875 C 1322.417969 2578.601562 1304.523438 2583.152344 1285.585938 2583.152344 C 1220.65625 2583.152344 1168.023438 2530.527344 1168.023438 2465.609375 C 1168.023438 2400.691406 1220.65625 2348.066406 1285.585938 2348.066406 Z M 1285.585938 2348.066406 " fill-opacity="1" fill-rule="nonzero"/></g><g clip-path="url(#677e0ea04a)"><path fill="#f687b3" d="M 2630.144531 2363.132812 C 2636.746094 2345.695312 2640.453125 2326.8125 2640.453125 2307.023438 C 2640.453125 2219.828125 2569.746094 2149.078125 2482.402344 2149.078125 C 2464.589844 2149.078125 2447.589844 2152.0625 2431.585938 2157.484375 C 2392.433594 2082.847656 2314.042969 2031.886719 2223.804688 2031.886719 C 2114.125 2031.886719 2022.078125 2107.0625 1996.402344 2208.625 C 1970.089844 2185.765625 1935.820312 2171.847656 1898.207031 2171.847656 C 1815.5625 2171.847656 1748.5625 2238.804688 1748.5625 2321.390625 C 1748.5625 2322.65625 1748.5625 2323.828125 1748.652344 2325.09375 C 1723.96875 2312.082031 1695.847656 2304.582031 1665.921875 2304.582031 C 1568.085938 2304.671875 1488.789062 2383.917969 1488.789062 2481.683594 C 1488.789062 2579.449219 1568.085938 2658.78125 1666.011719 2658.78125 C 1682.917969 2658.78125 1699.285156 2656.339844 1714.746094 2651.914062 C 1735.273438 2734.136719 1809.597656 2795.128906 1898.296875 2795.128906 C 1956.34375 2795.128906 2008.15625 2769.015625 2042.875 2727.902344 C 2067.109375 2776.964844 2117.652344 2810.667969 2176.0625 2810.667969 C 2234.472656 2810.667969 2282.035156 2778.863281 2307.078125 2732.148438 C 2307.894531 2731.878906 2308.707031 2731.699219 2309.519531 2731.425781 C 2332.757812 2755.191406 2365.21875 2770.007812 2401.113281 2770.007812 C 2464.40625 2770.007812 2516.941406 2724.109375 2527.339844 2663.839844 C 2551.933594 2678.839844 2580.867188 2687.421875 2611.882812 2687.421875 C 2701.757812 2687.421875 2774.726562 2614.597656 2774.726562 2524.691406 C 2774.726562 2441.113281 2711.613281 2372.167969 2630.328125 2363.042969 Z M 2630.144531 2363.132812 " fill-opacity="1" fill-rule="nonzero"/></g><g clip-path="url(#34e77f625e)"><path fill="#f687b3" d="M 507.914062 2513.320312 C 513.71875 2497.980469 516.976562 2481.367188 516.976562 2463.960938 C 516.976562 2387.257812 454.804688 2325.019531 378.003906 2325.019531 C 362.339844 2325.019531 347.394531 2327.644531 333.320312 2332.410156 C 298.894531 2266.757812 229.964844 2221.925781 150.617188 2221.925781 C 54.179688 2221.925781 -26.757812 2288.058594 -49.339844 2377.402344 C -72.472656 2357.292969 -102.605469 2345.050781 -135.679688 2345.050781 C -208.347656 2345.050781 -267.261719 2403.949219 -267.261719 2476.601562 C -267.261719 2477.710938 -267.261719 2478.746094 -267.183594 2479.859375 C -288.886719 2468.414062 -313.613281 2461.816406 -339.929688 2461.816406 C -425.953125 2461.894531 -495.679688 2531.605469 -495.679688 2617.609375 C -495.679688 2703.613281 -425.953125 2773.398438 -339.851562 2773.398438 C -324.984375 2773.398438 -310.59375 2771.253906 -296.996094 2767.359375 C -278.949219 2839.691406 -213.597656 2893.34375 -135.601562 2893.34375 C -84.558594 2893.34375 -39.003906 2870.375 -8.472656 2834.207031 C 12.835938 2877.367188 57.277344 2907.015625 108.640625 2907.015625 C 160 2907.015625 201.820312 2879.039062 223.839844 2837.941406 C 224.558594 2837.703125 225.273438 2837.546875 225.988281 2837.308594 C 246.421875 2858.210938 274.964844 2871.246094 306.527344 2871.246094 C 362.179688 2871.246094 408.375 2830.867188 417.515625 2777.851562 C 439.140625 2791.046875 464.582031 2798.597656 491.855469 2798.597656 C 570.882812 2798.597656 635.042969 2734.53125 635.042969 2655.441406 C 635.042969 2581.917969 579.546875 2521.269531 508.074219 2513.242188 Z M 507.914062 2513.320312 " fill-opacity="1" fill-rule="nonzero"/></g><g clip-path="url(#492be9e6f0)"><path fill="#f687b3" d="M 4081.542969 2323.277344 C 4075.738281 2307.9375 4072.480469 2291.324219 4072.480469 2273.917969 C 4072.480469 2197.210938 4134.652344 2134.976562 4211.453125 2134.976562 C 4227.117188 2134.976562 4242.0625 2137.597656 4256.136719 2142.367188 C 4290.5625 2076.710938 4359.492188 2031.882812 4438.839844 2031.882812 C 4535.277344 2031.882812 4616.214844 2098.015625 4638.796875 2187.355469 C 4661.929688 2167.246094 4692.0625 2155.003906 4725.136719 2155.003906 C 4797.804688 2155.003906 4856.71875 2213.90625 4856.71875 2286.554688 C 4856.71875 2287.667969 4856.71875 2288.699219 4856.640625 2289.8125 C 4878.34375 2278.367188 4903.070312 2271.769531 4929.386719 2271.769531 C 5015.410156 2271.851562 5085.136719 2341.558594 5085.136719 2427.5625 C 5085.136719 2513.566406 5015.410156 2583.355469 4929.308594 2583.355469 C 4914.441406 2583.355469 4900.050781 2581.210938 4886.453125 2577.316406 C 4868.40625 2649.648438 4803.050781 2703.300781 4725.058594 2703.300781 C 4674.015625 2703.300781 4628.460938 2680.328125 4597.929688 2644.164062 C 4576.621094 2687.324219 4532.179688 2716.972656 4480.816406 2716.972656 C 4429.457031 2716.972656 4387.636719 2688.992188 4365.613281 2647.898438 C 4364.898438 2647.660156 4364.183594 2647.5 4363.46875 2647.261719 C 4343.035156 2668.167969 4314.492188 2681.203125 4282.929688 2681.203125 C 4227.277344 2681.203125 4181.082031 2640.824219 4171.941406 2587.808594 C 4150.316406 2601 4124.875 2608.550781 4097.601562 2608.550781 C 4018.574219 2608.550781 3954.414062 2544.488281 3954.414062 2465.398438 C 3954.414062 2391.875 4009.910156 2331.226562 4081.382812 2323.199219 Z M 4081.542969 2323.277344 " fill-opacity="1" fill-rule="nonzero"/></g><g clip-path="url(#e6f4497205)"><path fill="#f687b3" d="M 4323.5 2396.46875 C 4309.710938 2396.46875 4296.585938 2399.144531 4284.558594 2404.003906 C 4274.65625 2366.523438 4240.574219 2338.886719 4199.992188 2338.886719 C 4194.339844 2338.886719 4188.8125 2339.433594 4183.464844 2340.464844 C 4173.625 2277.960938 4119.554688 2230.15625 4054.246094 2230.15625 C 4027.941406 2230.15625 4003.519531 2237.933594 3982.984375 2251.296875 C 3951.515625 2188.246094 3886.386719 2144.875 3811.117188 2144.875 C 3729.160156 2144.875 3659.234375 2196.261719 3631.714844 2268.546875 C 3628.554688 2268.363281 3625.398438 2268.304688 3622.175781 2268.304688 C 3552.3125 2268.304688 3491.863281 2308.152344 3462.09375 2366.34375 C 3450.25 2361.726562 3437.429688 2359.175781 3423.941406 2359.175781 C 3365.742188 2359.175781 3318.597656 2406.308594 3318.597656 2464.5 C 3318.597656 2522.691406 3365.742188 2569.828125 3423.941406 2569.828125 C 3443.625 2569.828125 3462.09375 2564.421875 3477.828125 2555.007812 C 3505.777344 2592.605469 3548.058594 2618.847656 3596.539062 2625.773438 C 3612.882812 2662.097656 3649.394531 2687.425781 3691.859375 2687.425781 C 3722.78125 2687.425781 3750.546875 2674.003906 3769.683594 2652.621094 C 3787.179688 2672.789062 3812.9375 2685.605469 3841.734375 2685.605469 C 3866.15625 2685.605469 3888.394531 2676.433594 3905.222656 2661.367188 C 3929.523438 2680.5 3960.140625 2691.921875 3993.496094 2691.921875 C 4036.992188 2691.921875 4075.875 2672.484375 4102.058594 2641.871094 C 4115 2646 4128.789062 2648.246094 4143.066406 2648.246094 C 4191.910156 2648.246094 4234.621094 2622.1875 4258.128906 2583.191406 C 4276.050781 2597.464844 4298.710938 2606.09375 4323.4375 2606.09375 C 4381.335938 2606.09375 4428.238281 2559.199219 4428.238281 2501.3125 C 4428.238281 2443.425781 4381.335938 2396.53125 4323.4375 2396.53125 Z M 4323.5 2396.46875 " fill-opacity="1" fill-rule="nonzero"/></g><g clip-path="url(#1ffac0d017)"><path fill="#f687b3" d="M 4192.628906 2348.066406 C 4208.304688 2348.066406 4223.1875 2351.140625 4236.898438 2356.671875 C 4249.871094 2305.894531 4295.984375 2268.332031 4350.832031 2268.332031 C 4374.378906 2268.332031 4396.332031 2275.277344 4414.714844 2287.207031 C 4435.746094 2229.292969 4491.328125 2187.859375 4556.566406 2187.859375 C 4636.988281 2187.859375 4702.71875 2250.75 4707.207031 2330.054688 C 4722.207031 2325.011719 4738.257812 2322.308594 4754.980469 2322.308594 C 4838.355469 2322.308594 4905.929688 2389.871094 4905.929688 2473.171875 C 4905.929688 2556.46875 4838.355469 2624.03125 4755.042969 2624.03125 C 4732.660156 2624.03125 4711.449219 2619.113281 4692.386719 2610.382812 C 4661.460938 2659.320312 4606.921875 2691.902344 4544.757812 2691.902344 C 4489.605469 2691.902344 4440.417969 2666.265625 4408.445312 2626.304688 C 4391.042969 2643.582031 4367.125 2654.214844 4340.6875 2654.214844 C 4291.804688 2654.214844 4251.53125 2617.824219 4245.320312 2570.671875 C 4229.457031 2578.601562 4211.566406 2583.152344 4192.628906 2583.152344 C 4127.699219 2583.152344 4075.066406 2530.527344 4075.066406 2465.609375 C 4075.066406 2400.691406 4127.699219 2348.066406 4192.628906 2348.066406 Z M 4192.628906 2348.066406 " fill-opacity="1" fill-rule="nonzero"/></g><g clip-path="url(#8cdfd8c9b4)"><path fill="#f687b3" d="M 5537.1875 2363.132812 C 5543.789062 2345.695312 5547.496094 2326.8125 5547.496094 2307.023438 C 5547.496094 2219.828125 5476.789062 2149.078125 5389.441406 2149.078125 C 5371.628906 2149.078125 5354.632812 2152.0625 5338.628906 2157.484375 C 5299.476562 2082.847656 5221.082031 2031.886719 5130.84375 2031.886719 C 5021.167969 2031.886719 4929.121094 2107.0625 4903.441406 2208.625 C 4877.128906 2185.765625 4842.863281 2171.847656 4805.246094 2171.847656 C 4722.605469 2171.847656 4655.605469 2238.804688 4655.605469 2321.390625 C 4655.605469 2322.65625 4655.605469 2323.828125 4655.695312 2325.09375 C 4631.011719 2312.082031 4602.890625 2304.582031 4572.960938 2304.582031 C 4475.128906 2304.671875 4395.832031 2383.917969 4395.832031 2481.683594 C 4395.832031 2579.449219 4475.128906 2658.78125 4573.050781 2658.78125 C 4589.960938 2658.78125 4606.328125 2656.339844 4621.789062 2651.914062 C 4642.3125 2734.136719 4716.636719 2795.128906 4805.339844 2795.128906 C 4863.386719 2795.128906 4915.195312 2769.015625 4949.917969 2727.902344 C 4974.148438 2776.964844 5024.695312 2810.667969 5083.105469 2810.667969 C 5141.515625 2810.667969 5189.074219 2778.863281 5214.121094 2732.148438 C 5214.933594 2731.878906 5215.75 2731.699219 5216.5625 2731.425781 C 5239.800781 2755.191406 5272.261719 2770.007812 5308.15625 2770.007812 C 5371.449219 2770.007812 5423.984375 2724.109375 5434.382812 2663.839844 C 5458.976562 2678.839844 5487.910156 2687.421875 5518.921875 2687.421875 C 5608.796875 2687.421875 5681.765625 2614.597656 5681.765625 2524.691406 C 5681.765625 2441.113281 5618.65625 2372.167969 5537.367188 2363.042969 Z M 5537.1875 2363.132812 " fill-opacity="1" fill-rule="nonzero"/></g><g clip-path="url(#683bbcf1fa)"><path fill="#f687b3" d="M 3397.601562 2367.25 C 3403.402344 2351.910156 3406.664062 2335.296875 3406.664062 2317.886719 C 3406.664062 2241.183594 3344.492188 2178.945312 3267.6875 2178.945312 C 3252.027344 2178.945312 3237.078125 2181.570312 3223.007812 2186.339844 C 3188.582031 2120.683594 3119.648438 2075.855469 3040.304688 2075.855469 C 2943.863281 2075.855469 2862.925781 2141.984375 2840.347656 2231.328125 C 2817.210938 2211.21875 2787.078125 2198.976562 2754.003906 2198.976562 C 2681.335938 2198.976562 2622.425781 2257.875 2622.425781 2330.527344 C 2622.425781 2331.640625 2622.425781 2332.671875 2622.503906 2333.785156 C 2600.796875 2322.339844 2576.074219 2315.742188 2549.757812 2315.742188 C 2463.730469 2315.820312 2394.003906 2385.53125 2394.003906 2471.535156 C 2394.003906 2557.539062 2463.730469 2627.328125 2549.835938 2627.328125 C 2564.703125 2627.328125 2579.09375 2625.179688 2592.6875 2621.285156 C 2610.738281 2693.617188 2676.089844 2747.273438 2754.085938 2747.273438 C 2805.128906 2747.273438 2850.683594 2724.300781 2881.214844 2688.132812 C 2902.519531 2731.296875 2946.964844 2760.945312 2998.324219 2760.945312 C 3049.683594 2760.945312 3091.503906 2732.964844 3113.527344 2691.871094 C 3114.242188 2691.632812 3114.957031 2691.472656 3115.675781 2691.234375 C 3136.105469 2712.140625 3164.648438 2725.175781 3196.214844 2725.175781 C 3251.867188 2725.175781 3298.058594 2684.796875 3307.203125 2631.777344 C 3328.828125 2644.972656 3354.269531 2652.523438 3381.539062 2652.523438 C 3460.566406 2652.523438 3524.726562 2588.457031 3524.726562 2509.371094 C 3524.726562 2435.84375 3469.234375 2375.199219 3397.757812 2367.167969 Z M 3397.601562 2367.25 " fill-opacity="1" fill-rule="nonzero"/></g></svg>